<?xml version="1.0" standalone="no"?>
<!DOCTYPE svg PUBLIC "-//W3C//DTD SVG 20010904//EN"
 "http://www.w3.org/TR/2001/REC-SVG-20010904/DTD/svg10.dtd">
<svg version="1.0" xmlns="http://www.w3.org/2000/svg"
 width="788.000000pt" height="788.000000pt" viewBox="0 0 788.000000 788.000000"
 preserveAspectRatio="xMidYMid meet">
<metadata>
Created by potrace 1.14, written by Peter Selinger 2001-2017
</metadata>
<g transform="translate(0.000000,788.000000) scale(0.100000,-0.100000)"
fill="#000000" stroke="none">
<path d="M3212 7871 c-35 -9 -90 -58 -106 -94 -22 -46 -23 -92 -2 -177 26
-108 27 -116 30 -203 2 -59 0 -80 -10 -84 -25 -9 -159 38 -218 78 -33 21 -66
39 -75 40 -9 0 -25 2 -36 5 -11 2 -39 -1 -63 -7 -48 -13 -128 -85 -138 -124
-3 -13 -15 -25 -27 -28 -12 -3 -56 -15 -97 -27 -41 -12 -79 -23 -85 -24 -50
-13 -131 -55 -162 -85 -28 -26 -53 -82 -53 -117 0 -7 -12 -20 -27 -29 -70 -46
-105 -109 -107 -191 -1 -11 -14 -35 -29 -53 -49 -59 -73 -155 -46 -187 6 -8 9
-14 5 -14 -7 0 22 -48 41 -68 10 -10 6 -24 -17 -70 -55 -109 -97 -268 -104
-388 -2 -34 -6 -66 -10 -72 -3 -6 -3 -13 1 -15 8 -5 7 -153 0 -207 -2 -14 0
-29 4 -35 5 -8 31 -79 34 -95 7 -37 21 -90 42 -160 13 -47 26 -93 28 -102 2
-9 8 -25 14 -36 7 -13 7 -22 -1 -30 -7 -7 -9 -12 -5 -12 4 0 -4 -19 -17 -42
-13 -24 -37 -67 -53 -96 -16 -29 -37 -62 -46 -73 -9 -10 -17 -23 -17 -27 0 -7
-50 -67 -87 -105 -10 -11 -30 -25 -45 -33 -25 -13 -28 -12 -61 23 -20 19 -51
66 -70 102 -50 97 -65 118 -105 142 -42 25 -122 33 -161 16 -32 -14 -91 -68
-91 -84 0 -6 -4 -13 -9 -15 -12 -4 -143 -258 -133 -258 4 0 2 -4 -4 -8 -10 -7
-86 -181 -119 -273 -60 -168 -87 -247 -91 -267 -3 -13 -12 -44 -20 -69 -9 -25
-17 -53 -19 -62 -9 -41 -47 -218 -51 -236 -7 -33 -16 -148 -15 -185 3 -88 36
-147 101 -180 29 -15 52 -18 109 -15 l71 4 14 -32 c13 -31 16 -173 4 -207 -30
-85 -40 -96 -113 -121 -56 -19 -74 -19 -84 0 -7 14 -19 72 -35 171 -16 102
-52 155 -122 185 -77 32 -156 14 -212 -49 -18 -20 -30 -36 -27 -36 3 0 -2 -11
-11 -25 -9 -14 -13 -25 -9 -25 4 0 3 -6 -3 -12 -10 -13 -59 -184 -68 -237 -2
-14 -9 -48 -15 -76 -6 -27 -13 -68 -15 -90 -2 -21 -7 -51 -10 -65 -3 -14 -7
-41 -8 -61 -1 -19 -5 -40 -9 -45 -8 -13 -2 -666 6 -724 4 -25 9 -51 12 -59 3
-8 8 -30 11 -50 3 -20 7 -43 10 -51 3 -8 8 -28 11 -43 20 -119 145 -404 227
-515 25 -34 46 -64 46 -67 0 -15 169 -178 240 -231 82 -62 305 -184 335 -184
9 0 23 -4 33 -10 21 -11 153 -50 196 -57 61 -9 71 -11 71 -13 0 -6 186 -26
234 -26 23 1 41 -1 41 -4 0 -5 71 -4 163 3 31 3 60 1 63 -4 4 -8 32 -152 38
-204 2 -11 6 -33 9 -50 3 -16 9 -46 11 -65 6 -37 8 -50 31 -170 22 -118 42
-154 103 -185 51 -25 68 -28 182 -30 96 -2 109 0 152 24 67 37 177 139 195
181 14 33 17 77 25 343 3 93 4 98 23 92 42 -14 118 -16 145 -5 22 9 37 9 67
-1 49 -16 81 -18 118 -6 60 18 92 37 126 74 l35 38 154 0 154 0 3 -35 c3 -31
8 -68 29 -195 3 -16 11 -61 19 -100 7 -38 16 -88 19 -110 37 -260 56 -301 158
-339 30 -12 58 -15 89 -11 24 3 75 8 113 10 84 5 122 13 139 29 6 6 23 19 36
28 58 41 160 142 177 176 15 29 19 63 20 157 2 180 18 401 29 414 2 1 55 4
117 6 l113 2 2 -82 c3 -186 50 -280 149 -300 16 -3 34 -7 40 -8 6 -2 23 -11
38 -21 30 -19 132 -30 142 -15 3 5 10 7 15 4 5 -3 35 21 67 53 33 33 79 73
103 88 91 59 139 125 138 189 0 11 2 40 4 64 4 51 -4 48 142 55 55 3 134 7
175 10 41 3 172 8 290 11 241 5 326 10 535 30 45 4 142 20 148 25 1 1 9 3 18
5 36 7 59 17 59 26 0 5 5 9 10 9 6 0 16 5 23 10 7 6 53 40 102 76 240 175 393
347 512 574 37 71 109 255 118 301 2 11 6 28 9 37 3 9 7 28 10 42 3 14 8 36
11 50 24 99 28 293 8 395 -8 44 -16 89 -18 100 -15 84 -93 318 -155 470 -30
71 -98 208 -125 250 -64 100 -110 134 -189 142 -109 11 -191 -59 -210 -182 -9
-53 -29 -81 -74 -104 -35 -18 -41 -18 -69 -4 -33 15 -69 63 -93 123 -8 19 -15
37 -15 40 -1 3 -7 29 -14 58 -17 67 -20 148 -8 187 27 82 101 115 279 120 88
3 158 19 158 36 0 5 6 9 13 9 34 0 113 186 131 310 3 19 8 53 12 75 3 22 6 49
5 60 -1 11 -2 27 -2 35 0 8 1 31 1 51 1 19 -2 60 -5 90 -4 30 -8 65 -10 79
-11 110 -94 360 -162 489 -70 131 -166 282 -184 289 -5 2 -9 9 -9 16 0 22
-141 166 -183 188 -77 39 -160 26 -217 -33 -14 -14 -43 -51 -65 -82 -22 -31
-44 -55 -50 -53 -12 3 -19 36 -41 196 -2 14 -8 45 -15 70 -14 57 -14 59 -23
95 -4 17 -21 70 -37 118 -18 54 -28 99 -25 115 3 15 8 42 11 61 3 19 10 42 15
51 5 10 7 19 5 22 -2 2 3 26 11 53 8 28 17 59 19 69 3 10 9 33 15 51 20 59 31
137 35 231 2 74 1 79 -60 193 -30 57 -96 118 -140 129 -80 21 -153 27 -299 25
l-150 -2 -35 42 c-72 83 -219 225 -252 241 -42 21 -111 37 -103 25 3 -6 -5 -7
-19 -4 -27 7 -91 -21 -119 -52 -34 -37 -50 -95 -53 -197 -5 -125 -14 -237 -20
-247 -6 -9 -75 11 -75 23 0 4 -7 8 -15 8 -8 0 -15 4 -15 8 0 4 -13 15 -28 24
-16 9 -71 59 -123 111 -100 99 -124 125 -289 307 -57 63 -165 176 -240 251
-121 122 -166 164 -280 263 -60 52 -257 193 -317 226 -32 18 -66 40 -75 48
-10 8 -18 12 -18 8 0 -4 -12 1 -27 11 -86 59 -223 100 -281 84z"/>
</g>
</svg>
